<?xml version="1.0" encoding="utf-8"?>
<!DOCTYPE svg PUBLIC "-//W3C//DTD SVG 1.0//EN" "http://www.w3.org/TR/2001/REC-SVG-20010904/DTD/svg10.dtd">
<svg version="1.0" xmlns="http://www.w3.org/2000/svg" width="1024px" height="1024px" viewBox="0 0 1024 1024" preserveAspectRatio="xMidYMid meet">
 <g fill="#343841">
  <path d="M888 915.3 c0 -12.6 -4.3 -17.7 -25.4 -30.5 -12.2 -7.4 -15.8 -9.1 -18.6 -8.9 -3 0.1 -5.5 -1.2 -14.5 -7.5 -6.1 -4.1 -12.5 -8.5 -14.2 -9.6 -2.7 -1.6 -3.3 -2.6 -3.3 -5.4 0 -3.2 0.2 -3.4 3.4 -3.4 1.8 0 5.3 0.7 7.7 1.6 9.9 3.5 24.9 6.5 35.7 7.1 6.4 0.3 11.2 0.2 11.2 -0.3 0 -0.5 -0.7 -1.8 -1.5 -2.8 -2.1 -2.8 -1.9 -8.2 0.5 -10.6 1.4 -1.4 3.3 -2 6.3 -2 5.9 0 8.5 2.1 8.9 7.2 l0.3 4.1 3.1 -2.6 c1.8 -1.5 3.9 -4.3 4.8 -6.2 0.9 -1.9 2 -3.5 2.4 -3.5 1.6 0 11.2 17.9 13.7 25.4 3.9 11.7 3.8 21.5 -0.3 29.9 -3.4 6.8 -9.9 14.7 -16.2 19.7 l-4 3.2 0 -4.9z"/>
  <path d="M860.4 826.5 l-5.2 -4.5 -5.8 2.7 c-5 2.3 -7.6 2.7 -16.9 3.1 -18.8 0.7 -29.2 -2.5 -39.4 -12.3 -7.2 -6.8 -10.7 -14.2 -12.2 -25.3 -0.9 -7 -0.3 -19.7 1.3 -26.1 0.3 -1.3 -63.3 -34.1 -66.3 -34.1 -0.9 0 -4.4 -2.7 -7.8 -6 -6.6 -6.6 -14.6 -11 -20.2 -11 -9.3 0 -18.2 4.2 -42.4 20 -21.7 14.2 -28.7 18.1 -39.5 22.1 -30.9 11.2 -73.8 5.8 -106.7 -13.4 -9.5 -5.6 -22.9 -19.1 -41.8 -42 -16.4 -19.9 -27.7 -35.8 -47.8 -66.7 -37.5 -57.6 -53.9 -79.7 -87.2 -117 -32.8 -36.7 -64.8 -67.2 -159 -151.3 -33.1 -29.6 -40.8 -36.7 -40.4 -37.2 0.2 -0.2 20.9 16.1 45.9 36.2 25 20.1 67.1 53.6 93.5 74.4 26.4 20.8 55.9 44 65.5 51.7 26.1 20.7 92.2 72.1 111.1 86.4 17 12.9 20.9 15.5 20.9 14 0 -2.4 -17 -29.9 -39.4 -63.7 -13.9 -20.9 -49.6 -74.7 -79.3 -119.5 -90.3 -135.9 -94.8 -142.8 -108.7 -164 -7.3 -11.3 -26.5 -40.7 -42.6 -65.5 -38.3 -59 -55.3 -84.6 -57.9 -86.9 -1.2 -1.1 -2.1 -2.3 -2.1 -2.8 0 -0.4 4.8 2.9 10.7 7.5 54.6 42.2 86 66.6 103.3 80.2 11.3 8.9 27 21.1 35 27.1 8 6.1 39 30.5 69 54.3 30 23.8 61.5 48.7 70 55.4 8.5 6.6 22.5 17.7 31 24.7 8.5 6.9 25.4 20.4 37.5 30 93.7 74.1 107.3 85.9 117 100.8 5.4 8.4 9 16.6 11.7 26.7 1.8 6.8 2.6 12.8 4.8 36.5 4 42.2 22.9 80.1 59 118.3 5 5.3 9.7 9.7 10.2 9.7 0.6 0 0.5 -0.6 -0.2 -1.5 -1 -1.2 -1 -1.5 0.1 -1.5 1.4 0 8.7 7.4 33.8 33.9 25.4 26.9 43.5 40.7 71.5 54.8 44.9 22.6 57.8 34.6 72.7 68.4 2.7 6.2 4.9 12.6 4.9 14.5 0 3.2 -0.2 3.4 -3.2 3.4 -2.4 0 -4.7 -1.2 -8.4 -4.5z m-50.9 -36.4 c0.8 -1.6 2.9 -4 4.6 -5.3 l3.1 -2.5 -2.4 -1.5 c-1.3 -0.8 -3.5 -2.3 -5 -3.2 -2.7 -1.8 -2.7 -1.8 -4.8 1.6 -4 6.5 -4.2 9.6 -1.3 15.8 l2.6 5.5 0.8 -3.8 c0.5 -2.1 1.6 -5.1 2.4 -6.6z"/>
  <path d="M798 660.9 c-20.9 -13.7 -81.6 -45.1 -130.5 -67.4 l-7 -3.2 -2.8 -11.4 c-1.5 -6.3 -5 -22.6 -7.8 -36.3 -7.5 -36.9 -15.3 -58.3 -29 -79.6 -11.5 -17.7 -20.2 -26.9 -65.9 -69.1 -65.2 -60.3 -256.2 -229.7 -273 -242.1 -1.7 -1.2 -3 -2.6 -3 -3 0 -0.5 2.6 1.1 5.8 3.5 7 5.3 25.2 18.3 74.2 52.7 20.6 14.5 49.4 34.8 64 45 41.3 29.1 79.1 55.4 121 84.2 85.6 58.9 129.6 89.2 147.6 101.9 10.4 7.3 27.3 19 37.5 26 67.2 45.9 84.1 61.1 96.3 86.4 5.3 10.9 7 17.6 7 27.5 -0.1 10.9 -2.9 20.7 -9.7 33.9 -10.9 21.1 -12.9 25.5 -14.8 33 -2.2 8.4 -2.5 18.1 -0.7 19.9 2.5 2.5 -4.7 1.1 -9.2 -1.9z"/>
  <path d="M349.5 453.8 c-1.1 -1.1 -8.8 -8.2 -17 -15.7 -8.3 -7.5 -34.9 -31.6 -59.1 -53.6 -88.3 -80.2 -104.4 -94.6 -128.9 -116.1 -47.4 -41.3 -58 -50.7 -58.4 -51.8 -0.2 -0.6 0.5 -0.4 1.5 0.5 1.8 1.6 11.9 9.4 92.4 72.8 34.4 27.1 102.2 80.8 125 99 21.3 17.1 33.2 30.3 40 44.6 3.8 7.9 8.5 22.6 7.2 22.4 -0.4 0 -1.6 -1 -2.7 -2.1z"/>
 </g>
 <g fill="#bc5432">
  <path d="M792.5 848.4 c-10.8 -2 -27.6 -7.7 -35 -11.9 -12.1 -6.8 -23.4 -18.4 -29.1 -30 -5.5 -11.3 -7.4 -20.6 -8.4 -41.5 -0.8 -16 -1.2 -19.5 -3.5 -26 -3 -8.6 -4.2 -15 -2.7 -15 0.5 0 1.3 0.7 1.6 1.6 0.3 0.8 1.1 1.2 1.7 0.9 0.6 -0.4 16.7 7.1 35.7 16.6 19.1 9.6 34.8 17.4 35 17.5 0.1 0 -0.5 1.8 -1.3 3.8 -2.4 5.6 -3.5 16.8 -2.4 24.3 1.4 9.8 5.1 17.3 12 23.8 9.9 9.4 21.2 13.2 36.8 12.2 7.1 -0.4 9.5 -1.1 15.4 -4.1 5.8 -2.9 7.3 -3.4 8.6 -2.4 0.9 0.7 4 3.2 6.9 5.7 2.8 2.4 5.2 4.1 5.2 3.8 0 -0.3 -2.2 -5.5 -4.9 -11.6 -14.9 -33.8 -27.8 -45.8 -72.7 -68.4 -32.9 -16.6 -47.9 -29 -91.7 -76 -6.5 -7 -11.3 -12.7 -10.7 -12.7 0.7 0 0.1 -1.5 -1.3 -3.3 -3.8 -5 -11.4 -19.2 -15.2 -28.2 -6.1 -14.8 -13.9 -41.5 -12.2 -41.5 0.3 0 5 2 10.4 4.5 54 25.1 99.3 48.3 125.3 64.3 24.3 15 57.5 44.3 71.8 63.5 19.5 26 32.2 58.9 32.2 83.2 0 8.1 -1.9 19.4 -4.6 27 -0.9 2.8 -1.7 6 -1.6 7.3 0.2 2.5 -1.5 2.8 -6.3 1.1 -2.8 -1.1 -5.3 -0.6 -20.6 4 -9.6 2.8 -20.5 5.8 -24.4 6.7 -10.1 2.3 -39.6 2.8 -50 0.8z"/>
 </g>
 <g fill="#f5f0ea">
  <path d="M782 877.4 c-64.4 -5.7 -107.6 -17.2 -156 -41.3 -25 -12.6 -39.8 -21.8 -70 -43.7 -18.8 -13.6 -38.1 -29.5 -51.4 -42.4 -22.6 -21.8 -46.3 -47.1 -30.2 -32.2 24.9 23.1 52.4 35.8 84.8 39.3 14.6 1.5 28.1 0.2 41.3 -4.2 11.6 -3.9 19.9 -8.4 42 -22.9 25.9 -17 32.8 -20 45.4 -20 8 0 14.3 2.7 21.4 9 9.4 8.3 12.6 18.4 13.7 43.5 1.5 32.1 7.9 47.4 26.2 63.1 15.9 13.6 44.5 22.2 70.2 21.1 14.3 -0.6 22 -2.1 44.3 -8.7 23.6 -7.1 28.7 -6.7 31.6 2.2 1.7 5.5 1.5 6.8 -2 11.6 -2.9 3.9 -7.7 6.5 -16.4 8.7 -12.4 3.3 -38.6 0.5 -56.8 -6 -7.9 -2.8 -7.1 -2.1 16.6 13.8 5.1 3.4 9.3 6.5 9.3 6.8 0 0.4 -2.6 0.9 -5.7 1.3 -7.2 0.7 -52.2 1.5 -58.3 1z m97.8 -23.6 c1.9 -1.9 1.4 -4.6 -1.3 -6.4 -4.6 -3 -9.9 1.2 -6.9 5.4 1.7 2.4 6.2 3 8.2 1z"/>
  <path d="M805.9 805 c-5 -4.1 -8.3 -12 -7.6 -18.1 0.7 -5.4 3.5 -11.5 6.6 -14.3 2.1 -1.9 2.2 -1.8 11.7 4.5 9.1 6 9.5 6.4 7 7 -8 2.2 -14.3 11.6 -13.2 19.6 0.3 2.3 0.2 4.3 -0.2 4.3 -0.4 0 -2.4 -1.3 -4.3 -3z"/>
  <path d="M115.5 321.9 c-9.8 -8.7 -15.3 -14.1 -10 -9.8 6.8 5.4 20.5 17.1 20.5 17.5 0 1.2 -2.4 -0.5 -10.5 -7.7z"/>
  <path d="M81 213.3 c-12.3 -10.6 -14.5 -12.6 -13 -11.8 1.9 1.1 21 16.6 21 17.1 0 1.2 -2.2 -0.3 -8 -5.3z"/>
  <path d="M274.8 146.2 c-6.4 -5.3 -8 -6.9 -5.8 -5.7 2 1.1 13 9.7 13 10.1 0 1.1 -2.1 -0.2 -7.2 -4.4z"/>
 </g>
</svg>