<?xml version="1.0" encoding="utf-8"?>
<!DOCTYPE svg PUBLIC "-//W3C//DTD SVG 1.0//EN" "http://www.w3.org/TR/2001/REC-SVG-20010904/DTD/svg10.dtd">
<svg version="1.0" xmlns="http://www.w3.org/2000/svg" width="310px" height="352px" viewBox="0 0 310 352" preserveAspectRatio="xMidYMid meet">
 <g fill="#e1e0df">
  <path d="M149.3 341 c-1.2 -0.5 -5.5 -3.3 -9.5 -6.3 -4 -2.9 -13.4 -9.6 -20.8 -14.7 -24.2 -16.7 -48 -34.9 -56.9 -43.5 -15.9 -15.3 -25.2 -30.8 -31.8 -52.5 l-3.8 -12.5 -0.3 -92.1 -0.3 -92.2 2.6 -3.1 c1.5 -1.7 4.3 -3.5 6.3 -4.1 2.6 -0.8 31.2 -1 93.2 -0.8 87.9 0.3 89.6 0.4 97 2.5 15.6 4.4 26.8 11.2 37.8 22.7 7.7 8.2 12.9 16.2 16.9 26.2 l2.8 6.9 0.3 65 0.3 65 -2.9 11.5 c-9.5 37.4 -25 55.3 -84.7 97.5 -10.2 7.2 -22.1 15.7 -26.5 18.9 -6.7 4.9 -9 6 -12.8 6.2 -2.6 0.2 -5.7 0 -6.9 -0.6z m9.2 -20.7 c9.4 -8.8 24.7 -55.4 23 -70.5 -1.6 -14.6 -6 -25 -19.1 -45.1 -12.1 -18.4 -11.8 -17.8 -11.9 -28.2 0 -16.3 4.6 -25.3 17.7 -34.5 l7.1 -5 -3.7 -1.5 c-5.1 -2.2 -10.9 -8.3 -12.4 -13.1 -0.6 -2.3 -1.2 -7.6 -1.2 -11.8 l0 -7.7 5.8 0.3 5.7 0.3 0.6 5.6 c0.9 8.5 6.1 14.4 14.3 16.3 3.8 0.9 12.3 -3.2 15.6 -7.6 2.2 -2.9 2.5 -4.2 2.2 -10.4 l-0.2 -7.2 7.1 -1.6 c8.9 -2 22.7 -2.2 24.3 -0.3 0.6 0.8 3.4 2.2 6.1 3.2 13.5 4.9 18.2 18.7 13.4 39.3 -1.2 5 -1.4 5.2 -4.5 5.2 -2.7 0 -3.7 -0.6 -4.8 -2.9 -2 -3.8 -6.8 -7.8 -10.3 -8.5 -1.6 -0.3 -5 0 -7.8 0.8 -3.8 1.1 -4.3 1.4 -2.2 1.5 2.4 0.1 2.7 0.5 2.7 3.4 0 2.6 -1.1 4.5 -5.1 8.7 -2.7 3 -6.6 8.8 -8.6 12.7 -5 10.1 -4.8 13.9 1.5 32.8 6.2 18.5 7.7 28 6.9 43.9 -0.7 13.3 -3.6 25.8 -8.7 37.7 -1.6 3.9 -3 7.3 -3 7.5 0 1.6 21.1 -15.9 28.2 -23.4 14.4 -15.2 22.9 -31.3 27 -51.1 1.8 -8.7 1.9 -13.3 1.6 -67 -0.3 -56.9 -0.4 -57.7 -2.6 -63.6 -5.1 -13.6 -17.9 -27.9 -31 -34.8 -12.8 -6.8 -11.8 -6.7 -105.3 -6.7 l-83.9 0 0 80.4 c0 85.9 0.2 89.1 5.1 103.9 6.6 19.7 17.4 35.1 35.1 50 l5.7 4.9 9.8 -6.6 c10.8 -7.2 24.4 -19 31.9 -27.8 4.3 -4.9 5.4 -5.6 8.7 -5.7 3.4 -0.1 3.7 0.1 3.7 2.8 0 4.8 -4.6 16.9 -9.7 25.5 -3.1 5.2 -8.1 11.4 -14 17.3 l-9.2 9.2 3.7 2.9 c2 1.6 10 7.3 17.7 12.7 7.7 5.5 15.9 11.4 18.3 13.2 2.4 1.8 4.7 3.3 5.1 3.3 0.3 0 2 -1.2 3.6 -2.7z"/>
  <path d="M178.6 112.8 c-2.3 -3.3 -2.1 -11.3 0.4 -13.8 2.5 -2.5 10.5 -2.7 13.8 -0.4 1.8 1.3 2.2 2.5 2.2 7.3 0 7.5 -1.6 9.1 -9.3 9.1 -4.6 0 -5.8 -0.4 -7.1 -2.2z"/>
 </g>
 <g fill="#c05239">
  <path d="M149.3 324.3 c-10 -6.7 -20.3 -14.5 -20.3 -15.5 0 -0.5 3.1 -4.4 6.8 -8.6 16.6 -18.7 26.1 -35.9 29.3 -53.3 3.1 -17.1 -9.8 -39.6 -28 -48.8 -17.7 -9 -36.3 -8.9 -55.8 0.4 -8.2 3.8 -17.6 10 -21.2 13.9 -1.7 1.8 -3.5 2.6 -5.9 2.6 l-3.4 0 0.5 -4.2 c0.2 -2.4 2.9 -9.9 5.9 -16.8 6.8 -15.3 10.9 -27.4 14.9 -44.5 8.1 -34.4 16.4 -52.7 31.6 -69.4 14 -15.5 30.9 -22.6 56.8 -23.8 22.5 -1 39.4 3.2 54.3 13.7 11.8 8.3 17.5 16.5 18.7 27.2 0.6 5 0.5 5.8 -0.9 5.8 -0.9 0 -1.9 -0.7 -2.2 -1.5 -1.2 -3.1 -25.4 -0.2 -25.4 3.1 0 2.6 -3.2 1.4 -7.2 -2.5 -2.1 -2.2 -5.9 -4.6 -8.5 -5.5 -15.3 -5.2 -41.1 -1.2 -55.3 8.5 -3.2 2.2 -3.8 2.9 -2 2.5 7.6 -2 16.4 -3.5 23.8 -4.1 8 -0.6 8.2 -0.6 8.2 1.5 0 1.6 -0.4 2 -1.5 1.6 -1.2 -0.4 -1.5 0.4 -1.5 4.1 0 12.8 7.7 21.5 20.9 23.8 l4.1 0.7 -10.5 6.9 c-16.1 10.7 -22 19.8 -21.9 34.4 0.1 7 0.5 8 11.8 25.2 10.2 15.6 13.9 22.9 16.6 32.5 4.7 16.5 3.3 32.6 -5 56.3 -7.6 22 -11.7 30.1 -17.1 34 -4.2 3.2 -5.6 3.1 -10.6 -0.2z"/>
 </g>
 <g fill="#2e2e2f">
  <path d="M118.6 302.5 c-7.1 -5.1 -13.5 -9.9 -14.3 -10.7 -1.2 -1.3 -0.7 -2 4.2 -5.8 12.5 -9.6 24.2 -25.8 28.9 -39.6 1.3 -3.8 2.2 -7 2.1 -7.2 -0.2 -0.2 -2.3 1.8 -4.6 4.5 -10.8 12 -21.9 21.6 -35.9 30.7 l-10.2 6.7 -5.4 -4.2 c-22.9 -17.7 -37.2 -40.7 -41.9 -67.5 -1.3 -7.3 -1.5 -22.2 -1.5 -92.3 l0 -83.6 89.7 0.6 c67.3 0.4 90.9 0.8 94.2 1.7 17.4 4.9 35.6 22.1 42.3 39.7 2.2 5.9 2.3 6.6 2.6 66.6 0.3 56.7 0.2 61.3 -1.6 70 -6.2 29.9 -19.6 48.1 -55.4 75.1 l-19.7 14.8 5.4 -8 c10.9 -16 17.7 -34.1 19.8 -52.4 1.5 -14.3 0 -25 -6.5 -43.9 -4.4 -13.1 -5.1 -16.3 -5.2 -23.3 -0.1 -7.3 0.2 -8.6 3.6 -15.5 2 -4 6 -9.9 8.7 -12.9 2.8 -3 5.1 -5.5 5.1 -5.5 0 -0.1 -4 0.1 -9 0.3 -5.5 0.3 -9 0.1 -9 -0.5 0 -1.4 12.4 -6.8 18.8 -8.3 10.5 -2.4 17.2 -0.1 22.2 7.4 l2.4 3.8 0.8 -2.9 c0.4 -1.5 1.3 -5.6 1.9 -9 2.1 -12.2 -3.4 -22.3 -14.6 -26.8 -5.7 -2.3 -6 -2.6 -6.3 -6.2 -0.8 -8.5 -7.3 -17.5 -18.4 -25.3 -14.3 -10.1 -31.7 -14.7 -50.8 -13.6 -23.7 1.3 -40.9 8.8 -54.3 23.7 -15.2 16.7 -23.5 35 -31.6 69.4 -4 16.9 -8 29.1 -14.8 44.5 -3 6.9 -5.7 13.2 -6 14 -0.3 0.8 1.2 -0.1 3.3 -2.1 5.5 -5.1 12.2 -9.4 20.7 -13.4 25.5 -12.1 55.8 -8.9 73.3 7.7 10.7 10.1 17.4 24.8 17.4 38.2 -0.1 18.2 -11.5 41.1 -31.7 63.7 l-5.9 6.6 -12.8 -9.2z"/>
  <path d="M179.7 128 c-7.2 -2.2 -12.3 -8.9 -13.1 -17.1 -0.4 -5.1 -0.2 -5 -13.8 -3.7 -10.8 1 -18.3 3.2 -30.5 8.9 -5.7 2.6 -10.3 4.5 -10.3 4.1 0 -1.5 13.7 -14.6 18.5 -17.8 12.1 -8 28.8 -12 46.5 -11.1 12.8 0.7 18.7 2.6 23.8 7.8 9.1 9 6.7 21.5 -5.2 27.4 -5.1 2.6 -10.6 3.1 -15.9 1.5z m10.5 -17.7 c2.7 -2.4 2.3 -6.9 -0.8 -8.9 -5.5 -3.7 -11.7 2.5 -8 8 1.9 3 6 3.5 8.8 0.9z"/>
 </g>
</svg>