<?xml version="1.0" encoding="utf-8"?>
<!DOCTYPE svg PUBLIC "-//W3C//DTD SVG 1.0//EN" "http://www.w3.org/TR/2001/REC-SVG-20010904/DTD/svg10.dtd">
<svg version="1.0" xmlns="http://www.w3.org/2000/svg" width="896px" height="352px" viewBox="0 0 896 352" preserveAspectRatio="xMidYMid meet">
 <g fill="#dedede">
  <path d="M160.3 341 c-1.2 -0.5 -5.5 -3.3 -9.5 -6.3 -4 -2.9 -13.4 -9.6 -20.8 -14.7 -24.2 -16.7 -48 -34.9 -56.9 -43.5 -15.9 -15.3 -25.2 -30.8 -31.8 -52.5 l-3.8 -12.5 -0.3 -92.1 -0.3 -92.2 2.6 -3.1 c1.5 -1.7 4.3 -3.5 6.3 -4.1 2.6 -0.8 31.2 -1 93.2 -0.8 87.9 0.3 89.6 0.4 97 2.5 15.6 4.4 26.8 11.2 37.8 22.7 7.7 8.2 12.9 16.2 16.9 26.2 l2.8 6.9 0.3 65 0.3 65 -2.9 11.5 c-9.5 37.4 -25 55.3 -84.7 97.5 -10.2 7.2 -22.1 15.7 -26.5 18.9 -6.7 4.9 -9 6 -12.8 6.2 -2.6 0.2 -5.7 0 -6.9 -0.6z m9.3 -20.8 c4.1 -3.8 10.1 -16.3 15.8 -33.4 5 -15 7.9 -30 7.1 -36.8 -1.7 -15 -6.4 -26 -20 -46.7 -11.3 -17.1 -11 -16.4 -10.9 -27.8 0.1 -7.9 0.6 -11.2 2.3 -15.8 2.6 -6.6 9.9 -14.7 17.6 -19.5 l5 -3.1 -3.8 -1.6 c-5.2 -2.2 -11 -8.3 -12.5 -13.1 -0.6 -2.3 -1.2 -7.3 -1.2 -11.2 0 -6.7 0.2 -7.2 2.4 -7.8 1.3 -0.3 3.8 -0.4 5.7 -0.2 3.3 0.3 3.4 0.4 4 5.9 0.7 6.5 3.3 10.7 8.5 14 6.3 3.9 13.5 2.5 19.8 -3.8 3.9 -3.8 4.5 -6 3.9 -13 l-0.6 -6 7.3 -1.7 c8.9 -2 25 -2.2 25 -0.3 0 0.7 2.4 2.1 5.3 3.1 13.7 4.8 18.5 18.6 13.6 39.4 -1.2 5 -1.4 5.2 -4.5 5.2 -2.7 0 -3.7 -0.6 -4.8 -2.9 -2.1 -4 -7 -7.9 -10.9 -8.6 -1.8 -0.3 -5.2 0.1 -7.7 0.9 -3.8 1.2 -4 1.4 -1.7 1.5 2.4 0.1 2.7 0.5 2.7 3.4 0 2.6 -1.1 4.4 -5 8.6 -2.8 2.9 -6.6 8.6 -8.6 12.7 -4.9 9.9 -4.9 14.2 0.4 29.9 7.8 23.3 7.6 22.6 7.6 40.5 0 18.7 -1.9 29 -8 43.3 -1.9 4.3 -3.4 8.1 -3.4 8.3 0 1.6 21.1 -16 28.5 -23.8 13 -13.7 20.5 -26.9 25.8 -45.6 2.1 -7.6 2.2 -8.9 2.2 -68.7 0 -61 0 -61 -2.3 -67 -5.3 -14 -18.5 -28.6 -31.6 -35 -13.8 -6.7 -10.1 -6.5 -103.8 -6.5 l-84.8 0 0 80.4 c0 87.9 0.1 88.8 5.9 106 6.2 18.3 16.9 33.2 34.3 48 l5.8 4.8 9.7 -6.5 c11 -7.4 24.7 -19.4 32 -27.9 4.2 -4.9 5.3 -5.6 8.6 -5.7 3.4 -0.1 3.7 0.1 3.7 2.8 0 4.8 -4.6 16.9 -9.7 25.5 -3.1 5.2 -8.1 11.4 -14 17.4 l-9.3 9.2 9.3 6.8 c5 3.7 11.5 8.3 14.2 10.2 2.8 1.9 8.5 6 12.8 9.2 4.3 3.2 8.2 5.8 8.6 5.8 0.3 0 2 -1.2 3.7 -2.8z"/>
  <path d="M189.6 112.8 c-2.3 -3.3 -2.1 -11.3 0.4 -13.8 2.5 -2.5 10.5 -2.7 13.8 -0.4 1.8 1.3 2.2 2.5 2.2 7.3 0 7.5 -1.6 9.1 -9.3 9.1 -4.6 0 -5.8 -0.4 -7.1 -2.2z"/>
  <path d="M437.5 165.6 c-7.3 -2.3 -12.1 -5.4 -17.3 -11 -8.2 -9 -11.3 -20.7 -9.2 -34.2 1.5 -9.5 5 -16.5 11.2 -22.7 8.3 -8.3 13.1 -10.2 25.8 -10.2 9.1 0 11.1 0.3 14.8 2.3 13.7 7.3 20.4 20.1 18.7 35.8 l-0.7 6.4 -24.3 0 c-13.4 0 -24.6 0.3 -24.8 0.8 -1 1.7 2.2 10.5 4.8 13.2 3.9 4.1 8.4 5.3 17.9 4.8 7.7 -0.4 10.3 -1.2 20.9 -6.6 0.4 -0.2 0.7 3.4 0.7 8.1 l0 8.5 -4.7 2 c-2.7 1.1 -6.6 2.5 -8.8 3.1 -5.3 1.5 -20 1.3 -25 -0.3z m25.5 -48.5 c0 -6.9 -4.1 -12.5 -10.3 -14.2 -8.3 -2.2 -16.2 1.6 -19.8 9.6 -3.5 7.7 -3.9 7.5 14.1 7.5 l16 0 0 -2.9z"/>
  <path d="M508.5 166.4 c-1.1 -0.3 -5 -1.4 -8.7 -2.5 l-6.8 -2 0 -8.9 c0 -5 0.2 -9 0.4 -9 0.3 0 2 0.9 3.8 1.9 8.7 5.2 27.3 6.9 32.2 3 5.6 -4.4 2.3 -11.7 -6.3 -13.8 -2 -0.5 -6.6 -1.6 -10.4 -2.4 -13.9 -3.3 -20.2 -11 -19.5 -23.7 0.3 -5.7 0.9 -7.7 3.3 -11.1 7.9 -11.1 27.3 -14.4 45.2 -7.8 l5.3 2 0 8.1 c0 7.3 -0.2 7.9 -1.7 7.3 -11.7 -5 -24.7 -6.4 -29.6 -3.2 -3.5 2.2 -4.4 6 -2.3 9.2 1.6 2.5 5 3.7 18 6.6 12.6 2.8 20 11.3 19.9 22.8 -0.1 9.7 -5.1 16.9 -14.8 21.3 -4 1.8 -7.1 2.3 -15.5 2.4 -5.8 0.2 -11.4 0.1 -12.5 -0.2z"/>
  <path d="M588.5 165.6 c-8.5 -2.7 -13.4 -6.6 -17.1 -13.6 -1.6 -3 -1.9 -6.5 -2.2 -25.2 l-0.4 -21.8 -6.1 0 -6.2 0 -0.2 -8 -0.3 -8 7 0 7 0 0 -10.5 0 -10.5 10 0 10 0 0 10.5 0 10.5 10.5 0 10.5 0 0 8 0 8 -10.5 0 -10.5 0 0 19.4 c0 10.7 0.3 20.2 0.6 21.1 1.6 4.1 10.5 5.7 16.9 3.1 1.8 -0.8 3.6 -1.2 3.9 -0.8 0.3 0.3 0.6 4 0.6 8.3 l0 7.8 -5.2 1.6 c-6.1 1.8 -12.8 1.8 -18.3 0.1z"/>
  <path d="M699.9 165.1 c-33.6 -10.8 -35.7 -60.9 -3.1 -75.9 4.7 -2.1 7.1 -2.6 13.7 -2.5 22.9 0.2 36.9 16.6 34.1 39.7 l-0.7 5.6 -24.5 0 -24.4 0 0 2.4 c0 5.6 4.5 12.2 10.4 15.3 6.2 3.2 21.8 1.3 30.4 -3.7 1.8 -1.1 3.5 -2 3.8 -2 0.2 0 0.4 3.8 0.4 8.4 l0 8.4 -4.7 2 c-2.7 1.1 -6.6 2.5 -8.8 3.1 -6.2 1.7 -20.2 1.3 -26.6 -0.8z m26.1 -49 c0 -7.3 -7.1 -14.1 -14.8 -14.1 -4.7 0 -9.4 2.2 -12.5 5.9 -2.7 3.2 -5.1 9.7 -4.1 11.3 0.3 0.4 7.5 0.8 16 0.8 l15.4 0 0 -3.9z"/>
  <path d="M341 164.3 c0 -0.5 -0.2 -25.4 -0.5 -55.5 l-0.5 -54.8 10 0 10 0 0 33 c0 18.2 0.3 33 0.8 33 0.4 -0.1 6.6 -7 13.7 -15.5 l13 -15.4 11.3 -0.1 11.4 0 -1.9 2.4 c-1 1.3 -7.5 8.9 -14.5 17 -7.1 8 -12.8 14.8 -12.8 15.1 0 0.3 6.5 8.8 14.5 19 8 10.2 14.9 19.5 15.5 20.5 1 1.9 0.7 2 -10.7 1.9 l-11.8 0 -14 -19.2 -14 -19.1 -0.3 19.2 -0.2 19.2 -9.5 0 c-5.2 0 -9.5 -0.3 -9.5 -0.7z"/>
  <path d="M623.9 164.3 c0 -0.5 0 -17.4 0 -37.8 l0 -37 10.2 -0.3 10.1 -0.3 -0.4 5.6 c-0.3 6.1 0.2 6.8 2.3 2.8 3.2 -6 15.7 -11.6 22.3 -9.9 l2.7 0.7 -0.4 9.7 -0.4 9.7 -5.6 0.1 c-10.3 0.2 -15.3 2.8 -18.7 9.4 -1.8 3.6 -2 6 -2 26 l0 22 -10 0 c-5.5 0 -10 -0.3 -10.1 -0.7z"/>
  <path d="M757 109.5 l0 -55.5 10 0 10 0 0 55.5 0 55.5 -10 0 -10 0 0 -55.5z"/>
 </g>
 <g fill="#bb4e37">
  <path d="M161.4 325.1 c-1.7 -1 -6.8 -4.6 -11.3 -8 -4.6 -3.3 -9 -6.5 -9.9 -7.1 -1.1 -0.6 -1.3 -1.2 -0.7 -1.7 2.6 -1.9 16.5 -18.7 20.8 -25.2 10.2 -15.1 17.4 -34.9 16.2 -44.4 -2.2 -17.6 -13.6 -33.5 -29.5 -41.1 -3.7 -1.8 -10.8 -4.1 -15.5 -5.1 -7.6 -1.6 -9.8 -1.7 -17 -0.7 -9.5 1.4 -17.5 4 -26 8.4 -6.5 3.4 -14.9 9.3 -17.9 12.7 -1.2 1.3 -3.1 2.1 -5.3 2.1 -3.1 0 -3.3 -0.2 -3.3 -3.3 0 -1.9 2.3 -8.4 5.1 -14.8 6.9 -15.2 13.2 -34.5 17.4 -52.6 5.6 -24.6 12.9 -42.1 23.4 -56 11.9 -15.8 24.5 -24.5 42.7 -29.4 10.6 -2.9 38 -3.3 49.3 -0.7 15.7 3.7 32.2 14.2 39.6 25.3 3.5 5.2 4 6.8 4.4 12.9 0.3 5.5 0.1 6.7 -1 6.3 -0.8 -0.2 -1.3 -1 -1.1 -1.6 0.3 -1.7 -10.3 -1.4 -18.8 0.5 -6.1 1.4 -7.1 1.9 -6.7 3.5 0.8 3.1 -3.6 2.4 -5.5 -0.9 -2.3 -3.9 -10 -7.8 -18.2 -9.3 -15.7 -2.7 -38.5 2.7 -50.6 12.1 -2.4 1.8 -2.3 1.8 4 -0.1 7.7 -2.5 29 -3.9 29 -2 0 0.6 -0.7 1.4 -1.5 1.7 -1.9 0.8 -2 7 -0.3 12.8 1.4 4.5 7.3 11.1 11.6 12.8 1.5 0.6 4.8 1.5 7.5 2.2 l4.7 1.1 -8.2 5 c-16.9 10.2 -24 20.5 -24.1 35 -0.1 8.1 0.1 8.6 10.8 24.8 14.6 22.2 19 33.1 20.1 49.7 0.5 6.6 0.1 10.9 -1.5 18.9 -4.9 23.6 -16.2 50.8 -23 55.6 -4.4 3 -5.6 3.1 -9.7 0.6z"/>
  <path d="M478.3 295 c-11.6 -1.7 -23 -10.4 -27.8 -21.2 -3.6 -8.1 -4.5 -19.8 -2 -28.4 3.3 -11.8 9.6 -19.3 20.5 -24.7 6 -3 7.2 -3.2 17 -3.2 9.7 0 11 0.2 17 3.1 17.9 8.7 26.1 28.4 20.1 48.3 -5.6 18.5 -24.1 29.3 -44.8 26.1z m14.4 -16.1 c4.1 -1.5 10.1 -7.7 11.4 -11.8 1.8 -5.2 1.4 -16.9 -0.5 -21.6 -6.8 -16.1 -27 -16.6 -34.9 -0.9 -2.5 5 -3.2 14.3 -1.4 20.5 1.7 5.7 6.9 11.9 11.7 13.8 3.4 1.3 10.2 1.3 13.7 0z"/>
  <path d="M685 294.8 c-3.6 -0.3 -9 -1.4 -12 -2.5 l-5.5 -1.8 -0.3 -8.8 -0.3 -8.8 3.8 1.9 c6.5 3.3 14.4 5.2 21.9 5.2 6.1 0 7.7 -0.4 9.8 -2.2 2.5 -2.3 2.9 -3.5 2.7 -7.5 -0.2 -3.1 -5.2 -5.7 -15.1 -7.8 -9.7 -2 -14.3 -4.1 -18.2 -8.2 -8 -8.3 -7.6 -22.6 0.8 -30.5 1.6 -1.5 5.2 -3.7 7.9 -5 6.6 -3 21.9 -3.2 31.3 -0.4 l6.2 1.9 0 8.5 c0 6.6 -0.3 8.2 -1.2 7.4 -2.9 -2.3 -14 -5.2 -20.1 -5.2 -8.1 0 -11.7 2.3 -11.7 7.5 0 4 3.3 7 8.9 8.4 2 0.4 6.1 1.4 9.1 2.1 14.6 3.4 21.7 12.2 20.3 25.2 -1.8 15.2 -16.1 22.9 -38.3 20.6z"/>
  <path d="M734.6 292.9 c-5.1 -4 -2 -12.9 4.5 -12.9 6.5 0 9.4 8.9 4.3 12.9 -1.5 1.2 -3.4 2.1 -4.4 2.1 -1 0 -2.9 -0.9 -4.4 -2.1z"/>
  <path d="M353.1 281.3 c-6.7 -21.6 -19.1 -61.9 -19.1 -62.4 0 -0.2 4.2 -0.3 9.4 -0.1 9.3 0.3 9.4 0.4 10.1 3 2.1 9 14 45.1 14.5 44.5 0.6 -0.7 11.3 -38.5 12.7 -45 0.5 -2.2 1 -2.3 9.7 -2.3 l9.1 0 6.5 23.6 c3.6 12.9 7 23.5 7.4 23.5 0.5 0 2.1 -4 3.7 -8.8 1.5 -4.8 4.8 -15.4 7.4 -23.5 l4.6 -14.8 8.3 0 8.2 0 -10.7 37.3 -10.6 37.2 -10 0.3 -10 0.3 -7 -24.8 c-3.9 -13.6 -7.3 -24.1 -7.6 -23.3 -0.3 0.8 -3.5 11.9 -7 24.5 l-6.4 23 -9.6 0.3 -9.5 0.3 -4.1 -12.8z"/>
  <path d="M534.8 256.5 l-0.3 -37.5 9.8 0 9.7 0 0 5.5 c0 3 0.5 5.5 1 5.5 0.6 0 1 -0.4 1 -1 0 -1.6 6.1 -8 9.1 -9.6 1.6 -0.8 5.6 -1.7 8.9 -2.1 l6 -0.6 0 10.2 0 10.1 -6.3 0 c-8.7 0 -14.4 2.9 -17.4 9 -2.2 4.2 -2.3 5.6 -2.3 26.2 l0 21.8 -9.5 0 -9.5 0 -0.2 -37.5z"/>
  <path d="M589 242 l0 -52 10 0 10 0 0.2 30.1 0.3 30.2 13.3 -15.7 13.3 -15.6 10.6 0 c9.8 0 10.4 0.1 9.2 1.7 -0.8 0.9 -7.4 8.6 -14.7 17.1 l-13.3 15.4 3.4 4.2 c1.8 2.2 7.1 9.1 11.7 15.1 4.6 6.1 10.1 13.1 12.2 15.6 2.1 2.6 3.8 5 3.8 5.3 0 0.3 -5.1 0.6 -11.3 0.6 l-11.2 0 -11.6 -15.8 c-6.4 -8.6 -12.2 -16.7 -13 -18 -0.8 -1.2 -1.7 -2.2 -2.1 -2.2 -0.5 0 -0.8 8.1 -0.8 18 l0 18 -10 0 -10 0 0 -52z"/>
  <path d="M761.8 291.5 c-10.1 -6.9 -11.5 -23.5 -2.9 -32.5 5.9 -6.2 15.7 -7.5 21.6 -2.8 l2.5 1.9 0 -11.1 0 -11.1 4.5 0.3 4.6 0.3 0.2 28.5 0.2 28.5 -4.7 0.3 c-4.6 0.3 -4.8 0.2 -4.8 -2.4 l0 -2.7 -2.5 2.3 c-2 1.9 -3.9 2.5 -8.8 2.8 -5.4 0.3 -6.7 0 -9.9 -2.3z m15.2 -7 c3.8 -1.9 6 -6.3 6 -11.6 0 -3.3 -0.6 -4.7 -3.4 -7.5 -4 -4 -8 -4.5 -11.8 -1.4 -5.9 4.6 -6.3 14.4 -0.8 19.3 3.4 3.1 5.8 3.4 10 1.2z"/>
  <path d="M809.9 292 c-13.2 -7 -14.2 -27.5 -1.7 -35.7 5.3 -3.6 14.4 -3.9 19.8 -0.8 4.6 2.7 8 9.4 8 15.7 l0 4.8 -13 0 -13 0 0 2.4 c0 6.8 9.4 9.7 18.4 5.7 l4.7 -2 -0.3 4.6 c-0.3 4.3 -0.6 4.7 -3.8 5.9 -5.4 1.9 -14.9 1.6 -19.1 -0.6z m17.3 -24.5 c-1.3 -7.4 -13.1 -8.4 -16.7 -1.4 -0.8 1.5 -1.5 3.1 -1.5 3.4 0 0.3 4.2 0.4 9.3 0.3 8.6 -0.3 9.2 -0.4 8.9 -2.3z"/>
  <path d="M843.4 274 l-7.1 -20 5.3 0 5.3 0 4.3 13.5 c2.4 7.4 4.5 13.5 4.8 13.5 0.3 -0.1 2.5 -6.1 4.9 -13.5 l4.4 -13.5 4.9 0 c2.6 0 4.8 0.1 4.8 0.3 0 0.1 -3.1 9 -6.9 19.7 l-6.9 19.5 -5.4 0.3 -5.3 0.2 -7.1 -20z"/>
 </g>
 <g fill="#2c2d2e">
  <path d="M127.9 301.3 c-7.4 -5.3 -13.6 -9.8 -13.9 -10.1 -0.3 -0.2 1.3 -1.8 3.5 -3.5 15.7 -12.4 27.1 -28.2 32 -44.2 0.7 -2.5 1 -4.5 0.7 -4.4 -0.4 0 -2.9 2.6 -5.5 5.7 -7.7 9 -21.2 20.7 -33.5 28.8 l-11.3 7.6 -5.4 -4.2 c-18.1 -13.9 -31.1 -31.4 -37.6 -50.6 -5.9 -17.3 -5.9 -17.8 -5.9 -109.3 l0 -83.6 87.3 0.1 c96.8 0.1 93 -0.1 107.3 6.9 13.1 6.4 26.3 21 31.6 35 l2.3 6 0 64 c0 62.9 0 64.1 -2.2 71.7 -8.1 28.6 -20.4 44.2 -54.7 70.1 l-19.9 14.9 4.5 -6.3 c9.3 -13.4 15.2 -26.1 18.8 -40.9 1.9 -7.5 2.4 -12.3 2.4 -23 0 -14.6 -0.2 -15.2 -7.7 -37.5 -3.3 -9.9 -4.1 -13.4 -4.1 -20.1 -0.1 -7.3 0.2 -8.6 3.6 -15.6 2.1 -4.2 6 -10 8.8 -12.9 2.7 -2.9 5 -5.4 5 -5.5 0 -0.1 -4 0.1 -9 0.4 -5.7 0.3 -9 0.1 -9 -0.6 0 -1.3 9.3 -5.6 16.6 -7.8 7.1 -2 15.4 -1.5 19.2 1.3 1.5 1.1 3.8 3.6 5.2 5.7 l2.4 3.8 0.8 -2.9 c0.4 -1.5 1.3 -5.6 1.9 -9 2.1 -12.2 -3.4 -22.3 -14.6 -26.8 -5.7 -2.3 -6 -2.6 -6.3 -6.2 -1.1 -11.8 -14.7 -25.8 -32.5 -33.2 -27.3 -11.3 -65.3 -5.8 -85.4 12.4 -17.1 15.5 -28.4 37.4 -35.8 69.5 -4.3 18.6 -9.4 34.3 -16.2 50 -3 6.9 -5.7 13.2 -6 14 -0.3 0.8 1.2 -0.1 3.3 -2.1 11.2 -10.2 25.4 -17.1 40.8 -19.8 18.6 -3.3 40.3 2.1 52.3 13.2 15.3 14 21.2 32.6 16.5 51.5 -2.5 9.6 -9.1 24 -15 32.7 -5.6 8.1 -19.4 24.4 -20.8 24.4 -0.6 0.1 -7.2 -4.3 -14.5 -9.6z"/>
  <path d="M190.2 127.9 c-5.2 -1.6 -10.7 -7.8 -12.2 -13.7 -0.6 -2.8 -0.9 -5.5 -0.6 -6.1 1.1 -1.7 -0.7 -1.9 -11.4 -1 -11.8 0.9 -20.5 3.3 -32.9 9 -4.7 2.2 -8.9 3.8 -9.3 3.7 -1.6 -0.6 12.1 -13.8 18.4 -17.8 7.7 -5 14.7 -7.6 25.5 -9.5 26.5 -4.6 45.2 1.2 49.3 15.4 1.8 6.4 -2.9 14.9 -10.3 18.8 -3.7 1.9 -12.2 2.5 -16.5 1.2z m11 -17.6 c2.7 -2.4 2.3 -6.9 -0.8 -8.9 -5.5 -3.7 -11.7 2.5 -8 8 1.9 3 6 3.5 8.8 0.9z"/>
 </g>
</svg>