<?xml version="1.0" encoding="utf-8"?>
<!DOCTYPE svg PUBLIC "-//W3C//DTD SVG 1.0//EN" "http://www.w3.org/TR/2001/REC-SVG-20010904/DTD/svg10.dtd">
<svg version="1.0" xmlns="http://www.w3.org/2000/svg" width="249px" height="352px" viewBox="0 0 249 352" preserveAspectRatio="xMidYMid meet">
 <g fill="#ededee">
  <path d="M120 236.1 c0 -1.4 -1 -2.1 -3.5 -2.5 -1.9 -0.4 -3.5 -1.1 -3.5 -1.6 0 -0.6 -0.7 -1 -1.5 -1 -0.9 0 -1.8 -0.7 -2.1 -1.5 -0.4 -0.8 -1.2 -1.5 -2 -1.5 -0.8 0 -1.4 -0.4 -1.4 -1 0 -0.5 -0.7 -1 -1.5 -1 -1 0 -1.5 -1.1 -1.5 -3.5 0 -3.5 0.1 -3.5 4.3 -3.5 3.1 0 4.6 0.5 5.7 2 0.8 1.1 2.2 2 3.2 2 0.9 0 2.1 0.6 2.5 1.3 0.4 0.8 1.6 1.6 2.6 2 0.9 0.3 1.7 1.6 1.7 2.7 0 1.7 0.6 2 4 2 3.9 0 4 0.1 4 3.5 l0 3.5 -5.5 0 c-4.7 0 -5.5 -0.3 -5.5 -1.9z"/>
  <path d="M85 209.4 c0 -2.7 0.5 -3.7 2 -4.1 1.1 -0.3 2 -1.2 2 -1.9 0 -0.9 1.2 -1.4 3.5 -1.4 3.3 0 3.5 0.2 3.5 3.5 0 1.9 -0.4 3.5 -1 3.5 -0.5 0 -1 0.9 -1 2 0 1.7 -0.7 2 -4.5 2 -4.5 0 -4.5 0 -4.5 -3.6z"/>
  <path d="M108.8 180.3 c-2.5 -0.6 -2.3 -5.7 0.4 -9.3 1.7 -2.4 2.9 -3 6 -3 3.6 0 3.8 0.2 3.8 3.2 0 1.7 -0.5 4.7 -1.2 6.5 -1 2.8 -1.7 3.3 -4.3 3.2 -1.6 -0.1 -3.8 -0.3 -4.7 -0.6z"/>
  <path d="M135.7 152.3 c-0.4 -0.3 -0.7 -2.6 -0.7 -5 0 -4.2 0.1 -4.3 3.4 -4.3 3.8 0 4.6 1.2 4.6 6.6 0 3.2 -0.2 3.4 -3.3 3.4 -1.9 0 -3.7 -0.3 -4 -0.7z"/>
  <path d="M123 127.5 c0 -3.4 0.1 -3.5 4 -3.5 3.9 0 4 0.1 4 3.5 0 3.4 -0.1 3.5 -4 3.5 -3.9 0 -4 -0.1 -4 -3.5z"/>
  <path d="M169 105 c0 -0.6 -2 -1.5 -4.5 -2.2 -4 -1.1 -4.5 -1.5 -4.5 -4.1 0 -1.6 0.6 -3.5 1.4 -4.3 1.6 -1.6 7.6 -1.9 7.6 -0.4 0 0.6 0.7 1 1.5 1 1 0 1.5 -1 1.5 -3 0 -2 0.5 -3 1.5 -3 0.8 0 1.5 -0.7 1.5 -1.5 0 -1.2 1.4 -1.5 7 -1.5 5.6 0 7 0.3 7 1.5 0 1 1 1.5 2.6 1.5 2.2 0 2.5 -0.3 2 -2.2 -0.3 -1.3 -0.6 -2.6 -0.6 -3 0 -0.5 -0.7 -0.8 -1.5 -0.8 -0.8 0 -1.5 -0.4 -1.5 -0.9 0 -0.4 -1.6 -2.5 -3.5 -4.5 -2.4 -2.5 -3.5 -4.7 -3.5 -6.7 0 -2.6 0.3 -2.9 3.4 -2.9 2.4 0 4.3 0.9 6.6 3 1.8 1.7 3.6 3 4 3 2.7 0 4.7 15.8 3 22.9 -1.2 5 -1.2 5.1 -5.1 5.1 -3.3 0 -4 -0.4 -4.5 -2.5 -0.4 -1.7 -1.6 -2.8 -3.8 -3.4 -1.7 -0.5 -3.9 -1.2 -4.8 -1.6 -1.5 -0.6 -1.8 -0.2 -1.8 2.8 0 4.6 -3.8 8.7 -8 8.7 -1.7 0 -3 -0.5 -3 -1z"/>
  <path d="M141.3 95 c-0.4 -1.4 -1.4 -2 -3.4 -2 -2.7 0 -2.9 -0.3 -2.9 -4 0 -3.4 -0.3 -4 -2.1 -4 -1.1 0 -2.7 -0.6 -3.5 -1.4 -2.4 -2.5 -1.5 -9.6 1.2 -9.6 0.8 0 1.4 -0.9 1.4 -2 0 -1.6 0.7 -2 3.5 -2 l3.5 0 0 5.5 c0 3 -0.4 5.5 -1 5.5 -0.5 0 -1 0.5 -1 1 0 0.6 1.3 1 2.9 1 1.6 0 4.9 0.9 7.5 2 3.8 1.8 4.6 2.5 4.6 4.8 0 6.1 -0.9 7.2 -5.7 7.2 -3.6 0 -4.6 -0.4 -5 -2z"/>
  <path d="M146.8 80.3 c-1 -0.2 -1.8 -1.1 -1.8 -1.9 0 -0.8 -0.7 -1.4 -1.5 -1.4 -1 0 -1.5 -1.1 -1.5 -3.5 0 -3.1 0.3 -3.5 2.5 -3.5 1.8 0 2.5 -0.5 2.5 -2 0 -1.7 0.7 -2 3.8 -2 5.2 0.1 7.2 1.9 7.2 6.6 0 7.1 -3.8 9.7 -11.2 7.7z"/>
  <path d="M202.9 48.5 c-1.3 -3.6 -2.7 -6.5 -3.1 -6.5 -0.5 0 -0.8 -1.8 -0.8 -4 0 -3.9 0.1 -4 3.5 -4 2.4 0 3.5 0.5 3.5 1.5 0 0.8 0.4 1.5 0.8 1.5 1.5 0 4.2 7 4.8 12.5 l0.7 5.5 -3.5 0 c-3.3 0 -3.5 -0.2 -5.9 -6.5z"/>
  <path d="M182.3 28.3 c-0.7 -0.2 -1.3 -2 -1.3 -3.9 l0 -3.4 5.5 0 5.5 0 0 4 0 4 -4.2 -0.1 c-2.4 0 -4.9 -0.3 -5.5 -0.6z"/>
  <path d="M166.8 23.3 c-1.3 -0.3 -1.8 -1.5 -1.8 -4.4 0 -3.8 0.1 -3.9 3.5 -3.9 1.9 0 3.5 0.5 3.5 1 0 0.6 0.7 1 1.5 1 1 0 1.5 1.1 1.5 3.5 0 3.3 -0.2 3.5 -3.2 3.4 -1.8 -0.1 -4.1 -0.3 -5 -0.6z"/>
 </g>
 <g fill="#e3e2e1">
  <path d="M70.5 293.6 c-11.7 -5.4 -11.9 -22.2 -0.3 -28.2 8.3 -4.3 18.8 2.3 18.8 11.9 l0 3.7 -10 0 c-9.4 0 -10 0.1 -10 2 0 1.2 1.1 3.2 2.5 4.5 2.8 2.9 6.8 3.2 12 1.1 3.4 -1.5 3.5 -1.4 3.5 0.8 0 1.3 -0.6 2.9 -1.4 3.5 -2.3 1.9 -11.7 2.3 -15.1 0.7z m12.5 -18 c0 -2.6 -4.1 -6.6 -6.8 -6.6 -3 0 -7.2 3.6 -7.2 6.2 0 1.6 0.9 1.8 7 1.8 5.2 0 7 -0.3 7 -1.4z"/>
  <path d="M100.5 294.6 c-0.5 -0.2 -2.1 -0.7 -3.5 -1 -2 -0.4 -2.5 -1.1 -2.5 -3.4 0 -2.8 0 -2.8 3.5 -1.5 7.2 2.5 12.7 1 11.8 -3.4 -0.2 -1.1 -1.9 -2.3 -4.8 -3.1 -6.6 -2 -8.9 -3.3 -9.7 -5.6 -2.8 -8.5 3.7 -13.9 14.3 -12 4.4 0.8 4.9 1.2 5.2 3.7 0.3 2.6 0.1 2.8 -2 2.1 -7.5 -2.7 -14.8 0.6 -10.1 4.5 1.2 1 3.9 2.1 6.1 2.4 4.9 0.8 7.4 3.6 7.4 8.3 0 5.2 -3.4 8.3 -9.7 8.9 -2.8 0.3 -5.4 0.3 -6 0.1z"/>
  <path d="M130.3 293.5 c-4.5 -1.9 -5.3 -4.2 -5.3 -14.4 0 -9 0 -9.1 -2.5 -9.1 -2 0 -2.5 -0.5 -2.5 -2.5 0 -2 0.5 -2.5 2.5 -2.5 2.3 0 2.5 -0.4 2.5 -4 0 -3.9 0.1 -4 3.5 -4 3.4 0 3.5 0.1 3.5 4 l0 4 4 0 c3.6 0 4 0.3 4 2.5 0 2.3 -0.4 2.5 -4 2.5 l-4 0 0 9 c0 8.7 0.1 9 2.5 9.6 1.4 0.3 3.4 0.4 4.5 0.1 1.6 -0.4 2 0 2 2.3 0 4 -4.7 5.2 -10.7 2.5z"/>
  <path d="M174.5 293.1 c-5.2 -2.4 -7.8 -6.9 -7.8 -13.7 0 -6.4 2.4 -10.9 7.3 -13.6 4.3 -2.4 11 -1.9 14.9 0.9 3 2.3 5.5 8.7 4.6 12 -0.5 2.2 -1 2.3 -10 2.3 -9.4 0 -9.5 0 -9.5 2.4 0 3.1 4.3 6.6 8.2 6.6 1.6 0 4.4 -0.7 6.3 -1.4 l3.5 -1.5 0 2.9 c0 2.5 -0.5 3 -3.7 3.9 -5.4 1.5 -9.2 1.3 -13.8 -0.8z m12.3 -18.8 c-0.4 -3.4 -4.4 -5.9 -8.1 -4.9 -2.2 0.5 -5.7 4.9 -5.7 7.1 0 0.3 3.2 0.5 7.1 0.5 l7 0 -0.3 -2.7z"/>
  <path d="M33.8 272.5 l-0.3 -21.5 3.3 0 3.2 0 0 13 c0 9.8 0.3 13 1.3 12.9 0.6 0 3.4 -2.7 6 -6 4.4 -5.4 5.1 -5.9 8.8 -5.9 l4.1 0 -5.6 6.2 c-3.1 3.4 -5.6 6.5 -5.6 6.9 0 0.4 2.5 3.9 5.5 7.7 3 3.9 5.5 7.3 5.5 7.6 0 0.3 -1.7 0.6 -3.7 0.6 -3.6 0 -4.1 -0.5 -9.1 -7.5 -3 -4.1 -5.8 -7.5 -6.3 -7.5 -0.5 0 -0.9 3.4 -0.9 7.5 l0 7.5 -3 0 -2.9 0 -0.3 -21.5z"/>
  <path d="M146.8 279.5 l0.3 -14.5 3.4 0 c2.8 0 3.2 0.3 2.8 2 -0.6 2.3 1.5 2.8 2.3 0.6 0.5 -1.3 5.3 -3.6 7.5 -3.6 0.5 0 0.9 1.6 0.9 3.5 0 2.8 -0.4 3.5 -2 3.5 -3.4 0 -6.8 2.2 -8 5 -0.7 1.6 -1 6.1 -0.8 10.4 l0.3 7.6 -3.5 0 -3.5 0 0.3 -14.5z"/>
  <path d="M200 272.5 l0 -21.5 3 0 3 0 0 21.5 0 21.5 -3 0 -3 0 0 -21.5z"/>
  <path d="M122.3 243.2 c-3.2 -1.7 -13.4 -8.8 -29.5 -20.4 -27.5 -19.8 -32.5 -24.1 -42.5 -36.1 -4 -4.8 -8.4 -13.5 -12.1 -23.9 l-3.7 -10.3 -0.5 -68.5 -0.5 -68.5 2.1 -2.2 c1.2 -1.2 3.7 -2.4 5.5 -2.8 1.9 -0.3 32.2 -0.5 67.4 -0.3 63.2 0.4 64.1 0.4 71.5 2.7 9.9 2.9 15.1 6.1 23.3 14 7.7 7.4 9.8 10.5 13.3 19.3 l2.4 6.2 0 48.4 c0 50.9 -0.1 51.7 -4.8 65.7 -1.7 5.1 -7.2 15.1 -10.7 19.4 -10.9 13.3 -24.1 24.4 -52.9 44.1 -1.1 0.8 -5.5 3.9 -9.6 7 -12.2 9 -13.1 9.3 -18.7 6.2z m6.9 -14.9 c3.9 -4.4 10.5 -20.5 13.8 -33.4 3.5 -13.6 2.2 -25.1 -4.3 -37.3 -1.7 -3.4 -3.4 -6.3 -3.8 -6.6 -0.7 -0.6 -9.2 -13.7 -10.8 -16.7 -1.7 -3.2 -1.4 -17.1 0.5 -22.7 1.6 -4.7 5.5 -9.5 10.8 -13.2 l2.9 -2.1 -4.2 -3.9 c-4.6 -4.3 -6 -8.3 -6.1 -17.2 l0 -5.3 5.2 0.3 c5.2 0.3 5.3 0.4 5.8 3.8 1.4 8.5 7 13.2 13.3 11.1 5.8 -1.9 8.2 -5.4 8.2 -11.8 l0 -5.6 5.5 -1.3 c6.9 -1.6 18.6 -1.8 19.6 -0.3 0.3 0.6 2.6 2 5.1 3.1 6.7 2.9 10.3 9.3 10.3 18.1 0 3.8 -0.5 8.8 -1.1 11.3 -1 3.9 -1.4 4.4 -4.1 4.4 -2.1 0 -3.9 -1.1 -6.7 -4 -2.1 -2.2 -4.5 -4 -5.4 -4 -3.4 0 -4.7 1.2 -4.7 4.6 0 2.3 -0.6 3.8 -2 4.6 -1.1 0.7 -2 1.7 -2 2.1 0 0.5 -1.1 2.3 -2.5 4.1 -1.3 1.8 -3.1 5.2 -4 7.6 -1.7 4.9 -1.3 7.1 3.8 21 3.1 8.3 3.1 8.9 3.1 26 0 16.2 -0.2 18.1 -2.6 25.3 -1.4 4.2 -2.3 7.7 -1.9 7.7 1.1 -0.1 12.7 -10.4 16.8 -15 9 -10.3 14.9 -21.5 17.7 -33.7 1.3 -6 1.6 -13.9 1.6 -47.5 -0.1 -47.2 -0.5 -51.1 -6.6 -57.8 -10.9 -12 -15.4 -15.6 -23.2 -18.2 -6.6 -2.3 -7.3 -2.3 -68.9 -2.6 l-62.3 -0.3 0 56.8 c0 34.4 0.4 59.3 1.1 63.2 1.7 10.9 6.3 23.5 11.2 30.8 4.9 7.2 13.8 17 18.1 19.8 2.5 1.7 2.7 1.6 7.2 -1 5.1 -3 15.9 -12.1 21.9 -18.4 3 -3.2 4.7 -4.1 7.1 -4.1 l3.3 0 -3 3.2 c-2.6 2.9 -2.7 3.3 -1.2 3.9 1.3 0.4 2.1 -0.1 3 -2 1 -2.4 1.1 -2.1 1.2 3 0.1 4.7 -0.5 6.5 -3.6 11.7 -2.1 3.4 -6.4 8.8 -9.5 12 -3.2 3.2 -5.8 6.1 -5.8 6.3 0 0.3 2.9 2.7 6.5 5.3 3.6 2.6 6.5 5.1 6.5 5.5 0 0.3 1.4 1.2 3 1.8 1.7 0.6 3 1.8 3 2.7 0 0.9 0.8 1.6 2 1.6 1.1 0 2 0.4 2 0.8 0 0.7 5.6 4 7.1 4.1 0.3 0.1 1.3 -0.7 2.1 -1.6z m-13.7 -1.3 c-0.3 -0.5 -1.3 -1 -2.1 -1 -0.8 0 -1.2 0.5 -0.9 1 0.3 0.6 1.3 1 2.1 1 0.8 0 1.2 -0.4 0.9 -1z m58.9 -127.9 c-0.7 -0.8 -7.4 -0.9 -7.4 -0.1 0 0.4 1.1 1.1 2.5 1.4 1.4 0.4 2.5 1.2 2.5 1.8 0 0.7 0.6 0.3 1.4 -0.8 0.8 -1 1.3 -2.1 1 -2.3z m21.9 -2.1 c0.6 -2.2 -2.4 -6.2 -3.1 -4.1 -0.6 1.7 0.7 6.1 1.7 6.1 0.5 0 1.1 -0.9 1.4 -2z m-48 -5 c0.3 -1.1 0.2 -2.2 -0.2 -2.5 -1.3 -0.7 -4.5 2.1 -3.7 3.3 1.1 1.9 3.3 1.4 3.9 -0.8z m37.7 -1.5 c0 -0.8 -0.9 -1.5 -2 -1.5 -2.5 0 -2.6 1.7 -0.2 2.3 0.9 0.3 1.8 0.5 2 0.6 0.1 0 0.2 -0.6 0.2 -1.4z m-46 -2.5 c-0.9 -0.6 -0.9 -0.9 0.1 -1.3 1 -0.4 0.9 -0.6 -0.3 -0.6 -1.2 -0.1 -1.8 0.6 -1.8 1.9 0 1.4 0.5 1.8 1.6 1.3 1.1 -0.4 1.2 -0.8 0.4 -1.3z m-4 -11.2 c0 -1.1 -3.8 0.3 -4.3 1.7 -0.4 1 0 1 1.9 0.1 1.3 -0.6 2.4 -1.4 2.4 -1.8z m70.5 -32.8 c-2.4 -5.2 -3.1 -4.5 -0.9 0.9 0.9 2.3 1.9 3.9 2.2 3.7 0.3 -0.3 -0.3 -2.4 -1.3 -4.6z"/>
  <path d="M143.7 79.2 c-2.4 -2.7 -2.2 -9.7 0.3 -12.2 2.2 -2.2 7.8 -2.7 11.1 -1 2.5 1.4 2.8 10 0.4 10 -0.9 0 -1.5 0.9 -1.5 2.5 0 2.3 -0.4 2.5 -4.3 2.5 -3 0 -4.9 -0.6 -6 -1.8z m11.2 -7.1 c0 -1 -0.2 -1.1 -0.6 -0.3 -0.2 0.6 -1.1 1.2 -2 1.2 -1.4 0 -4.3 2.3 -4.3 3.4 0 0.2 0.8 0.6 1.8 0.9 2 0.5 5.2 -2.8 5.1 -5.2z"/>
 </g>
 <g fill="#bb4e37">
  <path d="M84.1 344.3 c-5.5 -2.9 -7.6 -6.5 -7.6 -13.1 0 -9.4 5.7 -15.2 14.7 -15.2 14.3 0 20.2 18.8 8.6 27.3 -3.8 2.8 -11.4 3.3 -15.7 1z m11.6 -4.8 c3 -2.1 4.4 -7.5 3.2 -12 -1.8 -6.5 -7.6 -8.3 -12.8 -3.9 -2.7 2.2 -3.1 3.2 -3.1 7.4 0 3.9 0.5 5.4 2.5 7.5 2.9 2.9 7 3.3 10.2 1z"/>
  <path d="M167 345.1 c-1.8 -0.5 -2.6 -1.5 -2.8 -3.5 -0.3 -2.4 -0.1 -2.8 1.5 -2.1 3.6 1.5 10.3 1.8 11.8 0.5 3.7 -3 1.3 -5.6 -7.1 -7.9 -4.8 -1.3 -6.2 -2.6 -7 -6.8 -1.3 -6.4 7.7 -11.3 16.4 -9.1 2.6 0.7 3.2 1.4 3.2 3.4 0 2.1 -0.4 2.5 -1.7 1.9 -4.1 -1.6 -8.9 -1.7 -10.2 -0.2 -2.4 2.9 -0.9 5.1 4.8 6.9 3 1 6.2 2.5 7.2 3.4 2.1 1.9 2.5 6.5 0.8 9.6 -2.1 3.9 -10.2 5.8 -16.9 3.9z"/>
  <path d="M190.7 345.4 c-1.5 -1.5 -0.7 -4.5 1.1 -4.2 0.9 0.2 1.7 1.2 1.7 2.2 0 2 -1.6 3.1 -2.8 2z"/>
  <path d="M37 334.8 c-1.7 -5.7 -3.5 -11.3 -4 -12.6 -1.7 -3.9 -1.2 -5.2 1.9 -5.2 2.7 0 2.9 0.4 5.6 9.5 1.6 5.2 3.1 9.5 3.5 9.5 0.4 0 1.8 -4.2 3.1 -9.2 l2.5 -9.3 3.4 0 3.4 0 2.6 8.7 c1.4 4.8 2.8 9 3.2 9.3 0.3 0.4 1.9 -3.5 3.5 -8.7 2.6 -8.6 3.1 -9.3 5.6 -9.6 3.2 -0.4 3.4 -1.8 -1.7 15.8 l-3.3 11.5 -3.8 0 -3.8 0 -2.5 -9.2 c-1.4 -5.1 -2.8 -9.3 -3.2 -9.3 -0.4 0 -1.1 1.2 -1.5 2.8 -0.3 1.5 -1.5 5.7 -2.7 9.5 -1.9 6.5 -2.1 6.7 -5.4 6.7 l-3.3 0 -3.1 -10.2z"/>
  <path d="M111 331 l0 -14 3.5 0 c2.8 0 3.5 0.4 3.5 2 0 2.6 0.8 2.5 3.2 -0.5 1.1 -1.4 3 -2.5 4.4 -2.5 2.1 0 2.4 0.5 2.4 3.5 0 3.2 -0.2 3.5 -3 3.5 -5.5 0 -7 2.8 -7 13 l0 9 -3.5 0 -3.5 0 0 -14z"/>
  <path d="M133 325 l0 -20 3.3 0 3.2 0 -0.2 12 c-0.1 6.6 0.2 12 0.7 12 0.4 0 3 -2.7 5.7 -6 4.4 -5.5 5.1 -6 8.8 -6 l3.9 0 -4 4.3 c-8.5 9 -8.3 7.6 -2 15.5 3.1 3.8 5.6 7.2 5.6 7.6 0 0.3 -1.5 0.6 -3.4 0.6 -3.1 0 -4 -0.7 -8.7 -7 -2.8 -3.8 -5.5 -6.7 -5.9 -6.5 -0.5 0.3 -0.8 3.4 -0.7 7 l0.2 6.5 -3.2 0 -3.3 0 0 -20z"/>
  <path d="M199.6 342.8 c-4.6 -6.5 1.5 -14.5 8.7 -11.4 1.5 0.7 1.7 0.2 1.7 -3.8 0 -2.5 0.5 -4.6 1 -4.6 0.6 0 1 0.8 1 1.8 0.1 0.9 0.3 5.9 0.6 11 0.4 7.8 0.3 9.2 -1.1 9.2 -0.8 0 -1.5 -0.5 -1.5 -1.2 0 -0.9 -0.3 -0.9 -1.2 0 -2.1 2.1 -7.5 1.5 -9.2 -1z m9.8 -3.1 c1.2 -3.4 -0.1 -6.1 -3.3 -6.5 -3 -0.5 -5.1 1.5 -5.1 4.7 0 3.5 1.8 5.3 5 4.9 1.7 -0.2 2.8 -1.2 3.4 -3.1z"/>
  <path d="M218.7 343.3 c-3.2 -3.7 -2.2 -10.3 1.8 -12.1 4.7 -2.1 9.5 0.5 9.5 5.2 0 1.2 -1.1 1.6 -5.1 1.6 -4.7 0 -5 0.2 -4.7 2.3 0.3 1.9 0.9 2.2 4.6 2.2 2.7 0 4.2 0.4 4.2 1.3 0 2 -8.4 1.5 -10.3 -0.5z m9.3 -7.2 c0 -1.4 -3 -4.1 -4.5 -4.1 -1.5 0 -4.5 2.7 -4.5 4.1 0 0.5 2 0.9 4.5 0.9 2.5 0 4.5 -0.4 4.5 -0.9z"/>
  <path d="M234.5 339.3 c-2.8 -8.3 -2.8 -8.3 -1.2 -8.3 1 0 2 1.8 2.8 5 0.7 2.8 1.8 4.9 2.3 4.7 0.6 -0.2 1.7 -2.5 2.5 -5 0.8 -2.7 2.1 -4.7 2.8 -4.7 1 0 1.2 0.7 0.7 2.3 -4.1 13.2 -7 15 -9.9 6z"/>
  <path d="M120.9 230.9 c-2.4 -1.6 -6.5 -4.5 -9.1 -6.2 -2.6 -1.8 -4.8 -3.6 -4.8 -4 0 -0.4 2.6 -3.9 5.8 -7.6 10.8 -12.5 16.6 -22.7 19.6 -34.5 1.4 -5.2 1.4 -6.6 0.1 -12.3 -2.5 -10.6 -8.1 -18.2 -17.9 -23.9 -7.4 -4.4 -17.2 -6.8 -24 -5.9 -9.7 1.3 -22.9 7.3 -30 13.6 -2.4 2.1 -4.4 2.9 -7 2.9 -3.4 0 -3.6 -0.2 -3.6 -3.3 0 -1.8 1.1 -5.5 2.4 -8.3 4.9 -10.3 9.5 -23.3 12.1 -34.4 7.2 -30.3 14 -44.6 27.4 -57.3 6.4 -6.1 14.5 -10.4 24.1 -12.8 7.3 -1.8 29.8 -1.8 37 0 17.6 4.4 31.3 16.8 32.7 29.6 0.6 4.7 -0.4 5.7 -2.7 3 -1.5 -1.8 -6.6 -1.9 -14 -0.1 -4.2 1 -5.4 1.7 -5.2 2.9 0.4 2.4 -3.1 2.1 -5.4 -0.4 -5.1 -5.6 -14.7 -7.5 -27.1 -5.3 -11.9 2 -13.6 3.3 -4.5 3.4 5.7 0 7.2 0.3 7.2 1.5 0 0.8 -0.7 1.5 -1.5 1.5 -1 0 -1.5 1 -1.5 2.8 0 8.4 5.5 15.6 13.4 17.6 l4.5 1.2 -7.9 5.2 c-8.5 5.6 -11.2 8.7 -13.5 15.3 -1.8 5 -2 13.2 -0.4 16.2 0.7 1.2 4.1 6.7 7.7 12.2 8.4 12.9 11.1 18.8 12.7 28.3 2.5 14.1 -1.7 33.6 -11.1 52.5 -5.2 10.4 -8.2 11.7 -15.5 6.6z"/>
 </g>
 <g fill="#2f2e30">
  <path d="M100.5 216.5 c-11.6 -8.6 -11.4 -8.3 -9 -10.1 4 -2.9 12.8 -12 15.8 -16.4 3.4 -4.8 9.1 -18 8.2 -18.8 -0.3 -0.3 -4 2.9 -8.3 7.1 -4.2 4.1 -9.6 9.1 -12 11.1 -4.4 3.6 -15.4 10.6 -16.7 10.6 -1.6 0 -11.2 -8.5 -16.3 -14.3 -10 -11.5 -15.5 -23.8 -18.2 -39.9 -0.6 -3.8 -1 -30.2 -1 -66 l0 -59.8 62.8 0 c68.4 0 70.2 0.2 80.5 5.8 7.4 4 16.1 13.1 19.9 21 l3.3 6.7 0.3 45.5 c0.3 50 0 53.8 -5.8 66.6 -6.4 14.3 -15.5 24.4 -34 38.3 -6.9 5.1 -13.2 9.9 -14 10.5 -0.8 0.6 -0.2 -0.4 1.3 -2.3 3.9 -4.7 10.1 -17.2 12.9 -26.1 2 -6.4 2.3 -9.5 2.2 -21.5 -0.1 -13.6 -0.2 -14.3 -3.8 -24.5 -2.1 -5.8 -4 -12.6 -4.3 -15.1 -0.8 -6.6 1.8 -13.4 7.8 -20.9 l5.1 -6.3 -6.6 0.5 c-3.6 0.3 -6.6 0.2 -6.6 -0.2 0 -1 9 -4.5 15.3 -5.9 4.1 -1 5.2 -0.9 8.6 0.8 2.1 1.1 4.6 3.2 5.7 4.8 l1.8 2.8 1.2 -4 c3.5 -11.4 -0.3 -21 -9.7 -24.9 -2.9 -1.2 -3.8 -2.3 -5.2 -6.8 -0.9 -2.9 -3 -7 -4.7 -9 -3.8 -4.6 -15 -12.1 -21.3 -14.2 -21.4 -7.2 -46.4 -2.7 -60.8 11.1 -13.4 12.7 -20.2 27 -27.4 57.3 -2.6 11.1 -7.2 24.1 -12.1 34.4 -1.3 2.7 -2.2 5.2 -1.9 5.4 0.2 0.3 2 -0.9 3.9 -2.6 12.6 -11 32.6 -16.4 47.7 -12.8 17.1 4 28.2 15.5 31 32.3 1.1 6 1 8 -0.4 13.9 -3.2 12.8 -10.2 25 -21.4 37.2 l-4.8 5.3 -9 -6.6z"/>
  <path d="M142.3 87 c-3.8 -2.3 -6.3 -6.7 -6.3 -11 l0 -3 -6 0 c-8.5 0 -15.3 1.7 -24.9 6.1 -4.6 2.2 -8.6 3.8 -8.8 3.5 -1 -0.9 13 -12.5 18.1 -14.9 11.6 -5.5 31 -6.9 40.8 -3 11.3 4.5 11.9 18.4 1.2 22.9 -4.7 2 -10.3 1.7 -14.1 -0.6z m11.1 -11.2 c2.2 -3.1 2 -4.5 -0.8 -6.3 -4.6 -3.1 -9.7 2.5 -6 6.6 2.3 2.5 4.9 2.4 6.8 -0.3z"/>
 </g>
</svg>